# xmcd CD database file generated by OrangeCD 6.5
#
# Track frame offsets:
#	150
#	18260
#	32080
#	54249
#	64213
#	80904
#	103506
#	121607
#	143920
#
# Disc length: 2275 seconds
#
# Revision: 2
# Processed by: cddbd v1.5.2PL0 Copyright (c) Steve Scherf et al.
# Submitted via: OrangeCD 6.5
#
DISCID=7008e109
DTITLE=Breakout - ZOL
DYEAR=2005
DGENRE=Blues
TTITLE0=Poki usmiech ma twarz dziecka
TTITLE1=Pozegnalny blues
TTITLE2=Dzien zwegla sie
TTITLE3=Idzie Wenus
TTITLE4=Ona odeszla stad
TTITLE5=Gdy masz przyjsc
TTITLE6=Oslepil mnie deszcz
TTITLE7=Co tam za mgla
TTITLE8=W cieniu bluesa
EXTD=Polish blues
EXTT0=
EXTT1=
EXTT2=
EXTT3=
EXTT4=
EXTT5=
EXTT6=
EXTT7=
EXTT8=
PLAYORDER=
